<?xml version="1.0" encoding="UTF-8" standalone="no"?>
<svg
   xmlns:dc="http://purl.org/dc/elements/1.1/"
   xmlns:cc="http://creativecommons.org/ns#"
   xmlns:rdf="http://www.w3.org/1999/02/22-rdf-syntax-ns#"
   xmlns:svg="http://www.w3.org/2000/svg"
   xmlns="http://www.w3.org/2000/svg"
   xmlns:sodipodi="http://sodipodi.sourceforge.net/DTD/sodipodi-0.dtd"
   xmlns:inkscape="http://www.inkscape.org/namespaces/inkscape"
   viewBox="0 0 2000 1200"
   version="1.1"
   id="svg11736"
   sodipodi:docname="bg3.svg"
   inkscape:version="1.0.2-2 (e86c870879, 2021-01-15)">
  <metadata
     id="metadata11740">
    <rdf:RDF>
      <cc:Work
         rdf:about="">
        <dc:format>image/svg+xml</dc:format>
        <dc:type
           rdf:resource="http://purl.org/dc/dcmitype/StillImage" />
        <dc:title />
      </cc:Work>
    </rdf:RDF>
  </metadata>
  <sodipodi:namedview
     pagecolor="#ffffff"
     bordercolor="#666666"
     borderopacity="1"
     objecttolerance="10"
     gridtolerance="10"
     guidetolerance="10"
     inkscape:pageopacity="0"
     inkscape:pageshadow="2"
     inkscape:window-width="1280"
     inkscape:window-height="730"
     id="namedview11738"
     showgrid="false"
     inkscape:zoom="0.30641294"
     inkscape:cx="561.67388"
     inkscape:cy="1203.8986"
     inkscape:window-x="-6"
     inkscape:window-y="-6"
     inkscape:window-maximized="1"
     inkscape:current-layer="svg11736"
     inkscape:document-rotation="0"
     inkscape:snap-page="true" />
  <defs
     id="defs11714">
    <linearGradient
       id="a"
       x1="284.13"
       y1="124.1"
       x2="877.7"
       y2="263.56"
       gradientUnits="userSpaceOnUse">
      <stop
         offset="0"
         stop-color="#f3f3f3"
         id="stop11699" />
      <stop
         offset="1"
         stop-color="#fdfdfd"
         id="stop11701" />
    </linearGradient>
    <linearGradient
       id="b"
       x1="855.49"
       y1="465.13"
       x2="1966.05"
       y2="232.05"
       gradientUnits="userSpaceOnUse">
      <stop
         offset=".53"
         stop-color="#f4f4f4"
         id="stop11704" />
      <stop
         offset=".83"
         stop-color="#f2f2f2"
         id="stop11706" />
    </linearGradient>
    <linearGradient
       id="c"
       x1="118.65"
       y1="417.06"
       x2="593.1"
       y2="969.25"
       gradientUnits="userSpaceOnUse">
      <stop
         offset="0"
         stop-color="#e4e4e4"
         id="stop11709" />
      <stop
         offset=".43"
         stop-color="#f1f1f1"
         id="stop11711" />
    </linearGradient>
  </defs>
  <rect
     style="font-variation-settings:normal;opacity:1;vector-effect:none;fill:#801138;fill-opacity:1;fill-rule:evenodd;stroke:none;stroke-width:0.133333;stroke-linecap:butt;stroke-linejoin:miter;stroke-miterlimit:4;stroke-dasharray:none;stroke-dashoffset:0;stroke-opacity:1;stop-color:#000000;stop-opacity:1"
     id="rect11742"
     width="2003.8318"
     height="29.372129"
     x="0"
     y="0" />
  <rect
     style="font-variation-settings:normal;vector-effect:none;fill:#801138;fill-opacity:1;fill-rule:evenodd;stroke:none;stroke-width:0.124701;stroke-linecap:butt;stroke-linejoin:miter;stroke-miterlimit:4;stroke-dasharray:none;stroke-dashoffset:0;stroke-opacity:1;stop-color:#000000"
     id="rect11742-3"
     width="1752.7847"
     height="29.372129"
     x="247.21541"
     y="1158.9883" />
  <path
     d="m 123.43693,1153.3869 7.54856,0.049 v 2.4538 c 0,0 -0.65864,-0.886 -1.56221,-0.886 -0.89467,-9e-4 -3.27815,0.1462 -3.27815,0.1462 v 3.9718 h 3.26203 l 0.31639,-0.072 v 2.2125 l -0.65891,-0.5002 h -2.8792 v 4.9307 c 0,0 1.02646,0.513 2.77827,0.513 1.74264,0 3.95125,-1.1863 3.95125,-1.1863 l -0.1696,0.4023 -0.80737,2.2878 h -8.98454 c 0,0 0.98474,-0.6503 0.97168,-1.4026 -0.0153,-0.7599 0,-11.4806 0,-11.4806 0,0 0.0536,-1.1627 -0.79292,-1.1627 0.19573,-0.278 0.30472,-0.2797 0.30472,-0.2797"
     style="fill:#c11430;fill-opacity:1;fill-rule:evenodd;stroke:none;stroke-width:0.0278021"
     id="path106" />
  <path
     d="m 97.812778,1165.476 h -2.63315 c -0.43983,-0.1192 -0.67587,-0.2363 -0.67587,-0.2363 v -4.7833 h 3.11551 l 0.30916,0.1476 v -1.9211 l -0.31055,0.1798 h -3.1611 v -3.8541 c 0,0 3.33459,-0.176 4.69745,0.4022 1.358142,0.5725 2.902822,1.9817 2.902822,4.7027 0,4.6856 -4.244272,5.3625 -4.244272,5.3625 z m 6.401162,-5.5373 c 0,-3.9721 -3.21142,-5.7814 -5.059712,-6.2964 -1.5508,-0.4072 -3.5003,-0.3269 -4.47754,-0.3203 l -2.845277,-0.021 c 0,0 -0.107591,0 -0.294699,0.2797 0.24438,0 0.409529,0.098 0.529354,0.2382 0.04196,0.082 0.09202,0.1625 0.130668,0.2256 0.06368,0.1484 0.08813,0.3002 0.09982,0.427 v 11.5037 c -0.09508,0.677 -0.929431,1.2197 -0.929431,1.2197 h 5.808705 c 0,0 7.038112,0.3217 7.038112,-7.2556"
     style="fill:#c11430;fill-opacity:1;fill-rule:evenodd;stroke:none;stroke-width:0.0278021"
     id="path108" />
  <path
     d="m 180.77111,1161.1831 2.2909,-5.6286 2.10351,5.6303 z m 6.05142,6.6514 c 0,0 1.34229,0 4.28431,0 -0.87159,-0.1293 -1.57277,-1.7028 -1.57277,-1.7028 l -5.00105,-12.4413 c 0,0 -2.42101,0 -3.289,0 0.83102,0.35 0.16987,2.0276 0.16987,2.0276 0,0 -3.24534,7.9645 -3.90926,9.6991 -0.6578,1.7332 -1.71984,2.3079 -1.71984,2.3079 l -0.0737,0.088 h 3.82447 c 0,0 -0.25272,-0.1643 -0.52102,-0.5126 -0.3186,-0.4699 -0.0494,-1.3198 -0.0494,-1.3198 l 1.40039,-3.485 h 5.48703 c 0,0 1.11348,3.158 1.49743,4.1127 0.3959,0.9556 -0.52741,1.2261 -0.52741,1.2261"
     style="fill:#c11430;fill-opacity:1;fill-rule:evenodd;stroke:none;stroke-width:0.0278021"
     id="path110" />
  <path
     d="m 132.83822,1153.3957 h 3.01904 v 0.932 l 3.66517,9.754 0.25549,0.8219 0.28915,-0.2038 3.36323,-9.0891 c 0,0 0.40674,-1.1855 0.047,-1.6506 -0.36616,-0.4591 -0.40258,-0.5427 -0.40258,-0.5427 h 2.95286 l -0.20267,0.8819 -5.42476,13.8777 c 0,0 -1.86831,-0.4512 -2.71461,-2.8925 -0.75955,-2.1958 -3.70213,-9.9318 -3.70213,-9.9318 0,0 -0.37727,-0.7615 -0.72925,-1.3445 -0.16209,-0.2697 -0.43344,-0.2613 -0.41592,-0.6108"
     style="fill:#c11430;fill-opacity:1;fill-rule:evenodd;stroke:none;stroke-width:0.0278021"
     id="path112" />
  <path
     d="m 147.42992,1153.3785 h 3.76608 l 0.17765,0.1791 c 0,0 -0.81321,0.5602 -0.81321,1.1098 -0.006,0.4365 0,11.8904 0,11.8904 0,0 0.18961,0.6901 0.42482,0.8088 0.23965,0.1137 0.3656,0.3161 0.3656,0.3161 h -3.84171 v -0.2322 c 0,0 0.75399,-0.3227 0.75399,-0.9939 0,-0.6786 -0.0998,-11.6232 -0.0998,-11.9043 0,-0.6306 -0.73148,-0.8187 -0.73148,-0.8187 l -0.002,-0.3551"
     style="fill:#c11430;fill-opacity:1;fill-rule:evenodd;stroke:none;stroke-width:0.0278021"
     id="path114" />
  <path
     d="m 159.8408,1166.2144 c -1.40763,0 -2.354,-0.1579 -2.66206,-0.2838 0,-2.5634 -0.006,-10.9354 0.003,-11.3063 0.002,-0.544 0.81127,-1.1062 0.81127,-1.1062 l 0.007,-0.1024 h -4.10775 v 0.1229 c -0.009,0.019 0.58245,0.1857 0.78123,0.5722 0.0576,0.132 0.0937,0.2721 0.11399,0.3984 0,0.084 0.002,0.9906 0.0186,2.2773 -0.009,3.1266 0,8.9759 0,9.5275 0,0.8969 -0.97224,1.4029 -0.97224,1.4029 h 8.98927 l 0.80543,-2.2865 0.16765,-0.4014 c 0,0 -1.81604,1.1854 -3.95569,1.1854"
     style="fill:#c11430;fill-opacity:1;fill-rule:evenodd;stroke:none;stroke-width:0.0278021"
     id="path116" />
  <path
     d="m 171.23469,1166.2144 c -1.41041,0 -2.35568,-0.1579 -2.6629,-0.2838 0,-2.5634 -0.005,-10.9354 0,-11.3063 0.008,-0.544 0.81711,-1.1062 0.81711,-1.1062 l 0.003,-0.1024 h -4.10693 v 0.1229 c -0.007,0.019 0.58134,0.1857 0.77595,0.5722 0.0629,0.132 0.0965,0.2721 0.11649,0.3984 0,0.084 0.004,0.9906 0.0161,2.2773 0,3.1266 0.005,8.9759 0.005,9.5275 0,0.8969 -0.97113,1.4029 -0.97113,1.4029 h 8.98622 l 0.80931,-2.2865 0.17127,-0.4014 c 0,0 -1.82049,1.1854 -3.95959,1.1854"
     style="fill:#c11430;fill-opacity:1;fill-rule:evenodd;stroke:none;stroke-width:0.0278021"
     id="path118" />
  <path
     d="m 119.86156,1154.477 v -2.5818 c 0,0 -1.95782,-0.5657 -3.52198,-0.5657 -1.56915,0 -6.10508,0.2911 -6.10508,4.5542 0,4.4614 8.38903,3.9383 8.38903,7.982 0,1.2436 -1.84579,2.3721 -3.66015,2.3721 -2.56837,0 -5.10476,-1.9105 -5.10476,-1.9105 l 0.61554,2.8633 c 0,0 1.93364,0.8007 4.06523,0.8007 2.14161,0 6.69032,-1.2046 6.69032,-4.9093 0,-4.9874 -8.34399,-4.3643 -8.34399,-7.7954 0,-1.451 1.17576,-2.2517 3.03711,-2.2517 2.16551,0 3.93873,1.4421 3.93873,1.4421"
     style="fill:#c11430;fill-opacity:1;fill-rule:evenodd;stroke:none;stroke-width:0.0278021"
     id="path120" />
  <path
     d="m 91.367119,1129.8117 h 4.249559 v 0.176 c 0,0 -0.89551,0.043 -0.89551,1.2911 0,1.2445 0,10.0163 0,10.0163 0,0 0.27552,2.9579 3.59149,2.9579 4.037712,0 4.366882,-2.4886 4.366882,-2.4886 l -0.007,-10.1964 c 0,0 -0.14318,-1.6587 -0.91135,-1.6587 0,-0.1602 0.0703,-0.068 0.0703,-0.068 h 4.182 v 0.1507 c 0,0 -0.8399,0.107 -0.8399,1.0245 0,0.9205 0,12.6405 0,13.1182 0,0.4729 0.087,0.9731 0.55076,1.3148 0.47125,0.3386 0.37032,0.3725 0.37032,0.3725 h -3.38991 v -1.5314 h -0.32448 c 0,0 -1.34424,1.8283 -4.392462,1.8283 -3.46443,0 -5.664422,-1.9617 -5.664422,-4.8236 0,-1.4885 0,-10.0555 0,-10.0555 0,0 -0.321668,-1.2339 -0.956391,-1.428"
     style="fill:#c11430;fill-opacity:1;fill-rule:evenodd;stroke:none;stroke-width:0.0278021"
     id="path122" />
  <path
     d="m 108.26583,1131.7687 v -0.1565 h 2.96122 l 8.45825,10.8626 v -9.4965 c 0,0 -0.3517,-1.1003 -0.86854,-1.1782 0,-0.166 0,-0.1952 0,-0.1952 h 3.51169 v 0.1663 c 0,0 -0.92109,0.2574 -0.92109,1.4121 0,1.1621 -0.14429,13.2391 -0.14429,13.2391 h -0.31444 c 0,0 -1.15546,-0.4646 -3.95486,-3.9443 -2.79968,-3.4811 -6.00721,-7.6487 -6.00721,-7.6487 l -0.0995,-0.074 v 9.7277 c 0,0 0.48432,1.2075 1.01228,1.2075 0,0.1776 0,0.1851 0,0.1851 h -3.75858 v -0.2347 c 0,0 0.9172,-0.6503 0.9172,-1.1813 0,-0.5268 0.099,-11.142 0.099,-11.142 0,0 -0.13067,-1.2508 -0.89107,-1.549"
     style="fill:#c11430;fill-opacity:1;fill-rule:evenodd;stroke:none;stroke-width:0.0278021"
     id="path124" />
  <path
     d="m 124.56819,1131.5894 3.72633,0.059 v 0.1335 c 0,0 -0.73592,0.1715 -0.73592,0.8788 0,0.8972 0,11.8905 0,11.8905 0,0 0.0709,0.8329 0.68921,1.0826 0,0.2082 0,0.2291 0,0.2291 h -3.70047 l 0.0109,-0.2383 c 0,0 0.78486,-0.2813 0.78486,-1.1474 0,-0.749 0,-11.7653 0,-11.7653 0,0 -0.25189,-0.6831 -0.76818,-0.9275 -0.0369,-0.107 -0.007,-0.1949 -0.007,-0.1949"
     style="fill:#c11430;fill-opacity:1;fill-rule:evenodd;stroke:none;stroke-width:0.0278021"
     id="path126" />
  <path
     d="m 180.68437,1131.588 3.72271,0.059 v 0.1376 c 0,0 -0.73287,0.1643 -0.73287,0.876 0,0.8972 0,11.893 0,11.893 0,0 0.0748,0.8321 0.69145,1.0793 0,0.2071 0,0.2299 0,0.2299 h -3.70687 l 0.0173,-0.2391 c 0,0 0.78681,-0.2797 0.78681,-1.1466 0,-0.749 0,-11.7653 0,-11.7653 0,0 -0.25578,-0.682 -0.7679,-0.9264 -0.0361,-0.107 -0.0106,-0.1974 -0.0106,-0.1974"
     style="fill:#c11430;fill-opacity:1;fill-rule:evenodd;stroke:none;stroke-width:0.0278021"
     id="path128" />
  <path
     d="m 129.55979,1131.6069 h 2.97956 c 0,0 -0.0248,0.4893 0.0929,0.8777 0.11315,0.3939 4.01185,10.6137 4.01185,10.6137 l 3.65793,-9.5163 c 0,0 0.0203,-1.2619 -0.32223,-1.5306 -0.34585,-0.2735 -0.36531,-0.459 -0.36531,-0.459 h 3.2295 l -5.90907,15.0427 c 0,0 -1.54775,-0.5377 -2.37987,-2.478 -0.6717,-1.5547 -4.22649,-11.2246 -4.22649,-11.2246 l -0.78624,-1.0585 0.0175,-0.2671"
     style="fill:#c11430;fill-opacity:1;fill-rule:evenodd;stroke:none;stroke-width:0.0278021"
     id="path130" />
  <path
     d="m 144.39558,1131.6614 7.55859,0.051 v 2.4532 c 0,0 -0.66142,-0.9472 -1.55776,-0.9472 -0.90886,0 -3.28844,0.01 -3.28844,0.01 v 4.1765 h 3.26091 l 0.3175,-0.076 v 2.2141 l -0.65474,-0.4984 h -2.88281 l -0.0173,4.9501 c 0,0 1.03174,0.5078 2.78133,0.5078 1.74347,0 3.9707,-1.2028 3.9707,-1.2028 l -0.97669,2.6901 h -8.98482 c 0,0 0.97947,-0.6439 0.96751,-1.4018 -0.009,-0.7618 0,-11.485 0,-11.485 0,0 0.0581,-1.1522 -0.79542,-1.1522 0.20129,-0.2813 0.30137,-0.2874 0.30137,-0.2874"
     style="fill:#c11430;fill-opacity:1;fill-rule:evenodd;stroke:none;stroke-width:0.0278021"
     id="path132" />
  <path
     d="m 155.51951,1131.8226 c 0,0 3.89926,-0.1351 4.90374,-0.1351 1.00561,0 4.46365,0.6353 4.46365,3.6938 0,2.4235 -3.25536,3.4881 -3.25536,3.4881 l -0.1151,0.2819 c 0,0 2.79662,3.899 4.15281,5.0472 1.35341,1.1454 2.38181,1.7771 2.38181,1.7771 h -2.81274 c 0,0 -0.70646,0.084 -3.31708,-2.9701 -2.61396,-3.0569 -3.02015,-4.4331 -3.02015,-4.4331 0,0 3.59871,-0.4762 3.59871,-3.0473 0,-1.8544 -1.73291,-2.4094 -1.73291,-2.4094 0,0 -2.32592,-0.3723 -2.32592,0.1049 0,0.6819 0,11.6855 0,11.6855 0,0 0.45761,1.0517 0.83461,1.0517 -0.62833,0 -3.98321,0 -3.98321,0 0,0 0.87382,-0.2213 0.87382,-2.4919 0,-2.272 0,-10.4689 0,-10.4689 0,0 -0.30249,-1.0234 -0.64668,-1.1744"
     style="fill:#c11430;fill-opacity:1;fill-rule:evenodd;stroke:none;stroke-width:0.0278021"
     id="path134" />
  <path
     d="m 192.4597,1144.3106 h -2.94759 l -0.0189,-10.8064 c 0,0 7.85189,-1.5451 7.85189,5.2765 0,5.4559 -4.8854,5.5299 -4.8854,5.5299 z m -0.63529,-12.4799 c -1.3345,0 -5.34885,0 -5.34885,0 l 0.81127,0.8479 -0.0117,12.2439 -0.80153,1.1098 c 0,0 3.97822,0 5.08613,0 3.48333,0 8.00591,-1.4999 8.0073,-7.4329 0.006,-6.1943 -6.03334,-6.7673 -7.74263,-6.7673"
     style="fill:#c11430;fill-opacity:1;fill-rule:evenodd;stroke:none;stroke-width:0.0278021"
     id="path136" />
  <path
     d="m 204.32261,1139.3412 2.29757,-5.6239 2.09739,5.6272 z m 6.05781,6.655 c 0,0 1.34228,0 4.28098,0 -0.87966,-0.1271 -1.57111,-1.704 -1.57111,-1.704 l -5.00105,-12.4335 c 0,0 -2.42101,0 -3.29178,0 0.83213,0.3449 0.17739,2.0196 0.17739,2.0196 0,0 -3.25231,7.9673 -3.91177,9.7027 -0.66281,1.7323 -1.71873,2.3106 -1.71873,2.3106 l -0.08,0.087 h 3.82251 c 0,0 -0.24605,-0.1685 -0.51795,-0.5202 -0.31639,-0.4629 -0.05,-1.3156 -0.05,-1.3156 l 1.40429,-3.4833 h 5.48647 c 0,0 1.1107,3.1605 1.50244,4.1122 0.38701,0.9522 -0.53158,1.2244 -0.53158,1.2244"
     style="fill:#c11430;fill-opacity:1;fill-rule:evenodd;stroke:none;stroke-width:0.0278021"
     id="path138" />
  <path
     d="m 177.34644,1134.1116 v -2.3184 c 0,0 -1.75821,-0.5096 -3.16583,-0.5096 -1.41347,0 -5.49093,0.261 -5.49093,4.0977 0,4.0063 7.55329,3.5434 7.55329,7.1772 0,1.1157 -1.66535,2.1329 -3.2915,2.1329 -2.31147,0 -4.59848,-1.719 -4.59848,-1.719 l 0.55271,2.5725 c 0,0 1.74347,0.7209 3.66516,0.7209 2.72573,0 6.01278,-1.0853 6.01278,-4.4116 0,-4.4856 -7.50715,-3.9315 -7.50715,-7.0156 0,-1.3086 1.0551,-2.0195 2.73518,-2.0195 1.94143,0 3.53477,1.2925 3.53477,1.2925"
     style="fill:#c11430;fill-opacity:1;fill-rule:evenodd;stroke:none;stroke-width:0.0278021"
     id="path140" />
  <path
     d="m 221.49239,1144.3106 h -2.94731 l -0.0239,-10.8064 c 0,0 7.84911,-1.5451 7.84911,5.2765 0,5.4559 -4.8779,5.5299 -4.8779,5.5299 z m -0.63334,-12.4799 c -1.33534,0 -5.35719,0 -5.35719,0 l 0.81349,0.8479 -0.002,12.2439 -0.81211,1.1098 c 0,0 3.98155,0 5.09058,0 3.47972,0 8.00536,-1.4999 8.00536,-7.4329 0.009,-6.1943 -6.03919,-6.7673 -7.73873,-6.7673"
     style="fill:#c11430;fill-opacity:1;fill-rule:evenodd;stroke:none;stroke-width:0.0278021"
     id="path142" />
  <path
     d="m 68.796763,1165.4961 c 0.06366,-0.011 0.25995,-0.095 0.550205,-0.2207 -0.186274,0.077 -0.377554,0.1517 -0.568555,0.2207 0.0061,0 0.01028,0 0.01835,0"
     style="fill:#231f20;fill-opacity:1;fill-rule:nonzero;stroke:none;stroke-width:0.0278021"
     id="path144" />
  <path
     d="m 67.276541,1153.765 c -5.341909,-1.8781 -9.250338,-4.2571 -9.250338,-10.7595 0.241322,-2.4413 1.017836,-4.2067 1.466564,-4.6869 0.256058,-0.2689 -0.503776,-0.021 -1.234694,0.8694 0.04477,-0.2282 0.137343,-0.462 0.335294,-0.677 1.428476,-1.5488 2.209716,-2.5074 2.209716,-2.8094 0.371159,-0.5991 0.102035,-0.4545 -0.454566,-0.1518 -0.89662,0.7421 -0.719241,0.4345 -1.313095,1.3734 -0.10537,0.166 -0.332515,-0.038 -0.445948,0.1243 -1.09763,0.7915 -1.586112,2.9376 -1.068714,3.3763 -0.163477,0.3775 -0.291646,0.8132 -0.366155,1.3034 -0.174597,1.1354 -0.276076,2.121 -0.385338,2.7715 -0.391177,-2.3261 -0.757888,-4.6896 -1.020896,-6.4656 -0.01279,-0.1237 -0.147352,-0.613 -0.164034,-0.7323 -0.04504,-0.3014 0.0114,-0.6398 -0.129,-0.9542 -0.03169,-0.079 -0.186276,-0.3686 -0.123721,-0.7348 0.193782,-1.126 -0.116212,-1.8505 -0.239654,-2.5912 -0.01862,-0.1306 -0.169038,-0.1062 -0.201844,0.1252 -0.04949,0.3816 -0.06867,1.1593 -0.180992,1.3776 -0.03225,0.062 -0.234372,-1.2042 -0.340855,-1.3988 -0.0328,-0.055 -0.06366,-0.1941 -0.122885,-0.3241 -0.0228,-0.058 -0.05338,-0.1871 -0.09953,-0.2427 -0.05588,-0.066 -0.07674,-0.1472 -0.106483,-0.2219 -0.03114,-0.077 -0.01585,-0.1916 -0.04615,-0.2706 -0.04393,-0.1151 -0.130394,-0.1973 -0.178491,-0.3138 -0.272739,-0.6576 -0.518233,-1.317 -0.622769,-1.198 -0.118715,0.1351 0.185163,1.4213 0.370602,1.8297 0.400908,0.8513 0.788192,2.0971 1.088455,3.6237 0.03753,0.1946 0.170429,0.8257 0.211299,1.0133 0.03948,0.2264 0.06088,0.4711 0.100642,0.6801 0.03531,0.186 0.05755,0.5054 0.09258,0.6711 0.07646,0.4282 0.06088,0.6231 0.116769,0.873 0.05366,0.2619 0.06422,0.57 0.197953,0.89 0.173763,0.4282 0.173763,1.3473 0.01474,1.0695 -0.08452,-0.1479 -0.818773,-1.1035 -1.075944,-1.2611 -0.08646,-0.05 -0.174597,-0.1154 -0.264119,-0.174 -0.760113,-0.528 -1.610026,-1.2851 -1.610026,-0.7418 1.247762,0.6311 2.577818,2.9632 3.035164,4.3285 0,0.8158 0.01557,1.4194 0.06922,1.8973 0.03225,0.3608 -0.292477,0.5549 -0.218525,0.7999 0.05783,0.1776 0.481812,0.5574 0.565219,0.705 0.226866,0.4114 0.585236,0.6692 1.082894,1.1963 0.129002,0.302 0.228534,0.496 0.246049,0.496 0,1.367 8.493285,4.6321 3.170838,4.035 -1.130436,-0.5291 -2.828871,-1.5728 -3.318468,-1.5728 0,1.1009 4.11778,3.2959 6.730628,3.9809 0.417033,-0.4253 -2.68291,-1.2349 -1.951989,-1.2349 0.530742,-0.017 5.430597,0.5747 5.430597,0.1068"
     style="fill:#231f20;fill-opacity:1;fill-rule:nonzero;stroke:none;stroke-width:0.0278021"
     id="path146" />
  <path
     d="m 53.814731,1105.9749 c 0.09119,0.1755 0.187665,0.3328 0.264399,0.488 1.157403,-0.1969 -0.264399,-1.1677 -0.264399,-0.488"
     style="fill:#231f20;fill-opacity:1;fill-rule:nonzero;stroke:none;stroke-width:0.0278021"
     id="path148" />
  <path
     d="m 55.045532,1105.0805 c 0.07674,0.061 0.148743,-0.019 0.193225,-0.041 0.01975,-0.011 0.05699,0 0.09008,0.022 0.0367,0.031 0.07979,0 0.115379,-0.016 1.120706,-0.6576 -1.10875,-0.8794 -0.481256,-0.044 0.02752,0.039 0.02919,0.038 0.08257,0.079"
     style="fill:#231f20;fill-opacity:1;fill-rule:nonzero;stroke:none;stroke-width:0.0278021"
     id="path150" />
  <path
     d="m 45.234982,1142.7592 c 0.290532,-0.1941 0.260228,-0.1594 0.402853,-0.3918 0.150966,-0.2502 0.168759,-0.3592 -0.07423,-0.6235 -0.745099,-0.7491 -1.433202,-1.5075 -3.010698,-5.0531 -0.502106,-1.1293 -0.725914,1.9181 -0.358369,3.8287 0.560491,2.9175 0.845464,3.4565 1.379265,4.0674 0.937768,1.0542 2.420735,2.9033 2.420735,2.9033 0,0 0.94444,1.0652 0.667808,-0.1476 -0.256336,-1.2004 -1.193269,-2.0664 -2.009819,-2.6281 -0.808209,-0.5599 -0.48904,-1.1666 -0.48904,-1.1666 0,0 0.418701,-0.3266 1.071496,-0.7887"
     style="fill:#231f20;fill-opacity:1;fill-rule:nonzero;stroke:none;stroke-width:0.0278021"
     id="path152" />
  <path
     d="m 46.508877,1150.4325 c -0.0684,-0.4951 -0.487095,-1.8961 -0.807097,-2.2861 -0.322227,-0.3839 -2.936743,-3.1475 -3.255634,-3.5406 -0.317779,-0.394 0.426763,2.2125 0.426763,2.2125 0,0 0.02141,0.031 0.05977,0.092 -0.106761,0.1493 -0.07813,0.682 -0.125666,0.6918 0.375329,0.9613 2.54501,1.7231 3.221714,2.6945 0.273574,0.2208 0.498771,0.2514 0.480144,0.1359"
     style="fill:#231f20;fill-opacity:1;fill-rule:nonzero;stroke:none;stroke-width:0.0278021"
     id="path154" />
  <path
     d="m 45.660077,1150.7256 c -0.524906,-0.4607 -1.51216,-1.1357 -1.954215,-1.1357 -0.444834,0 -1.089289,0.3739 -1.089289,0.3739 0,0 -0.407301,2.0004 -0.407301,2.6758 0,0.6775 -0.08535,2.0703 0.437327,1.5719 0.514897,-0.4835 0.756776,0.3842 1.203557,0.3842 0.449283,0 0,0.816 1.357302,-0.6815 0.85297,-0.9414 1.060096,-1.8274 1.060096,-1.8274 0,0 0.215188,-0.6319 -0.607477,-1.3612"
     style="fill:#231f20;fill-opacity:1;fill-rule:nonzero;stroke:none;stroke-width:0.0278021"
     id="path156" />
  <path
     d="m 41.06271,1156.1159 c -1.525227,0.4913 -1.578885,0.5699 -2.595888,0.7253 -1.915292,0.292 -1.281124,-3.0337 -2.24586,-1.9247 -0.965847,1.1099 -1.417076,1.8077 -1.409292,3.3457 0.002,0.8352 -0.899956,1.1016 0.221027,1.9087 1.11737,0.8048 1.511605,-0.04 3.091324,-0.1038 1.576939,-0.062 1.18048,-0.4754 2.523047,-0.7623 1.340898,-0.2877 2.197483,-0.8883 2.520266,-2.4255 0.329734,-1.5374 1.044806,-1.3623 -0.0987,-1.6875 -1.145727,-0.3259 -0.583289,0.4657 -2.005926,0.9241"
     style="fill:#231f20;fill-opacity:1;fill-rule:nonzero;stroke:none;stroke-width:0.0278021"
     id="path158" />
  <path
     d="m 71.519151,1153.8461 c 0.54409,0.3031 1.142669,0.6325 1.813537,1.0051 0.290254,0.159 1.454608,1.0259 0.510725,0 -0.898566,-0.9717 -5.021906,-2.9426 -5.956059,-5.5104 -0.161531,-0.4577 -1.062321,-1.0643 -1.062321,-1.0643 0.05588,-0.5905 -0.189054,-0.6122 -0.155136,-1.0698 l -0.05143,-0.283 c 0,0 0,0 0.06923,-0.7702 0.117047,-1.347 2.429352,-4.17 2.711823,-5.2502 0.04448,-0.1601 0.171261,-0.4876 -0.536304,-0.5418 -2.142713,-0.1682 -3.2801,-1.6058 -3.822798,-2.0946 -0.106205,-0.094 -0.180715,0.052 -0.175433,0.2174 0.01558,0.7932 -0.01946,1.9537 -0.02502,2.6646 -0.08507,-0.034 -0.177656,-0.06 -0.278299,-0.093 -0.468744,-0.1368 -1.907785,-0.161 -2.632865,-0.161 -0.614707,0 -1.547191,0.3089 -1.943095,0.6039 -0.365875,0.2672 -1.978402,0.8886 0.508502,0.3153 0.47069,-0.107 1.112921,-0.2296 1.767385,-0.2314 0.473471,0 1.192712,0.2597 1.511882,0.3534 0.441498,0.1276 0.842961,0.2705 1.161574,0.3751 0.182939,0.8766 0.569945,1.7504 0.784577,2.8014 0.295816,1.4 0.335571,2.6968 0.335571,2.6968 0,0 0.997542,1.8152 1.562484,3.0245 0.268012,0.5636 0.786801,1.0612 1.60641,1.6228 -0.02891,0.039 -0.04477,0.088 -0.05032,0.1535 -0.02113,0.1716 -0.181546,-0.1699 -0.852969,-0.2878 -0.324174,-0.056 -0.645846,-0.076 -0.830728,-0.1295 -0.267181,-0.081 -0.340299,-0.081 -0.615264,-0.2065 -0.511838,-0.2367 -0.856027,-0.3665 -1.442655,-0.5842 -1.226909,-0.7176 -1.967003,-0.6303 -2.486348,-1.1182 -0.933873,-0.7075 -1.947819,-1.7868 -2.193591,-1.4534 0.03142,0.1759 0.219359,0.4298 0.495158,0.7094 0.08507,0.09 0.16014,0.091 0.264398,0.1874 0.07118,0.068 0.150409,0.2597 0.230759,0.3262 0.122885,0.1053 0.366709,0.1609 0.550483,0.3077 0.157358,0.1204 0.255778,0.156 0.407301,0.2777 0.05727,0.043 0.151522,0.2058 0.203789,0.25 0.333906,0.253 0.660025,0.4568 0.954727,0.6247 -0.01641,0.056 0.392845,0.305 0.552986,0.3433 0.02169,0.068 0.111207,0.1939 0.343078,0.2761 0.174598,0.181 0.669753,0.3467 1.010886,0.4613 0.09369,0.1096 0.430934,0.2274 0.581623,0.2421 0.283582,0.1919 0.858808,0.206 1.120149,0.2658 1.189098,0.5675 1.89166,0.7306 2.385147,0.8118 0.648068,0.2681 1.798801,0.3278 1.632822,-0.046 0.01501,0 0.02808,-0.013 0.03364,-0.021"
     style="fill:#231f20;fill-opacity:1;fill-rule:nonzero;stroke:none;stroke-width:0.0278021"
     id="path160" />
  <path
     d="m 63.398138,1132.8288 c 0.03003,0.6767 0.130949,1.3537 0.434826,1.7424 -0.02224,-0.053 -0.03947,-0.1051 -0.05949,-0.1591 -0.144293,-0.4136 -0.258282,-1.0137 -0.375329,-1.5833"
     style="fill:#231f20;fill-opacity:1;fill-rule:nonzero;stroke:none;stroke-width:0.0278021"
     id="path162" />
  <path
     d="m 49.295766,1174.7655 c 0.09786,-0.01 0.861589,-0.052 0.861589,-0.052 0,0 0.698948,0.2447 1.348404,0.488 0.643344,0.2502 2.208884,1.4392 2.420457,1.6264 0.219639,0.1846 1.28474,1.7134 1.497426,1.9288 0.215466,0.2158 0.487929,0.6445 0.706453,1.2278 0.220749,0.585 0.02447,1.1385 -0.323896,1.2479 -1.126822,0.3797 -1.425137,-0.3866 -1.450439,-0.634 -0.02836,-0.2422 -0.09286,-0.2785 0.148186,-0.6779 0.25161,-0.4022 0.795698,0.1622 0.70701,-0.3646 -0.09203,-0.5169 -0.731198,-0.4961 -0.731198,-0.4961 0,0 -1.379266,0.2255 -1.34479,1.5994 0.02169,1.3805 0.875489,1.7875 1.73541,2.0408 0.865205,0.2321 1.859131,-0.1257 2.18108,-0.7426 1.278901,-2.4622 -0.360037,-4.8854 -0.398683,-4.9799 -0.666973,-1.7216 -2.79245,-3.5473 -2.79245,-3.5473 0,0 -0.334181,-0.437 -0.431211,-0.6826 -0.08368,-0.2474 2.897821,1.9809 3.616505,3.537 0.430101,0.9011 0.597748,1.3315 0.629165,1.9979 0.02586,0.6746 -0.03281,0.7888 0.260783,0.9647 0.278578,0.1627 0.346694,-0.6117 0.526852,-0.6117 0.186273,0 0.507668,-0.4039 0.507668,-0.4039 0,0 0.167368,-0.7339 0.167368,-1.7427 0,-1.0164 -0.236041,-2.1371 -0.47764,-2.7201 -0.239099,-0.5841 0.220748,-0.1793 0.220748,-0.1793 0,0 0.539085,-0.133 1.05704,2.1355 0.517675,2.267 -0.378389,3.4508 -0.251888,3.5903 0.128167,0.1385 0.498771,-0.4487 0.681152,-0.6914 0.191835,-0.2519 0.229648,-0.6119 0.317501,-1.26 0.0898,-0.6406 0.529075,-2.4719 0.657243,-2.6762 0.11816,-0.2171 0.265511,0.7467 0.196563,2.2731 -0.07423,1.5505 -0.324731,1.362 -0.595802,2.3484 -0.17404,0.605 -0.65196,1.8792 0.762614,-0.089 0.562438,-0.7899 0.951947,-2.6224 0.993927,-2.9257 0.09119,-0.669 0.466522,-1.4013 0.711737,-1.3033 0.248828,0.094 -0.147353,0.8293 -0.233261,1.3578 -0.101479,0.5168 -0.641396,2.1677 -0.743429,2.4424 -0.08619,0.2688 -0.305548,0.71 -0.393679,0.89 -0.0962,0.184 1.238587,0.107 3.366286,-5.3339 0.07924,-0.1977 0.538527,-0.7709 0.559658,-0.9817 0.05255,-0.5059 0.04393,-0.5441 -0.1379,-0.7106 -0.104258,-0.092 -0.133171,-0.2716 -0.45095,-0.285 -0.431768,-0.018 -0.405635,0 -0.598025,0.056 -0.337796,0.089 -0.154024,0.5805 -0.425096,0.8037 -0.277743,0.2158 -1.772388,0.3237 -2.130201,0.2258 -0.371159,-0.094 -0.706453,-0.1229 -0.951112,-0.1518 -0.249108,-0.031 -0.179324,-0.394 -0.179324,-0.6486 0,-0.2409 -0.09564,-0.5171 -0.304991,-0.5171 -0.221304,0 -0.645288,-0.9083 -1.04564,-0.977 -0.395624,-0.06 -0.78958,-0.2591 -0.967236,-0.2591 -0.190723,0 -0.813492,-0.1891 -1.221351,-0.6917 -0.405356,-0.4985 -2.214163,-0.01 -2.737401,-0.037 -0.320559,-0.022 -1.863856,0.7581 -2.26393,0.7615 -0.130948,0 -0.447616,0.1924 -0.701449,0.1924 -0.118437,0 -0.3681,0.2229 -0.478475,0.2214 -0.644177,-0.02 -0.9108,0.049 -0.800146,-0.061 0.308326,-0.3112 2.174407,-0.713 2.391541,-0.8436 2.063757,-1.2786 2.053469,-0.4832 2.31759,-0.9036 0.169593,-0.3714 1.370646,-0.296 1.249707,-0.6703 -0.13206,-0.3675 -1.598624,-0.1418 -1.903614,-0.1418 -0.305546,0 0.01334,-0.2721 -2.118803,0.6177 -0.34586,0.1472 -1.26639,1.1019 -2.230569,0.8647 -0.362819,-0.09 -2.436303,0.2744 -2.898375,0.7543 -0.398127,0.6261 -0.53408,0.3797 -0.565775,0.7728 -0.03225,0.4048 0,0.6148 0.08897,0.6429 0.101755,0.028 1.048974,0.01 1.048974,0.01 0,0 1.20022,0.4051 1.280569,1.3832 0.03364,0.4828 -0.450118,0.3664 -0.450118,0.3664 0,0 -0.277743,-0.4039 -0.185162,-0.5821 0.08813,-0.1916 -0.09258,-0.3409 -0.395904,-0.2208 -0.31444,0.1229 -0.249385,0.8029 -0.249385,0.8029 0,0 0.08897,0.8895 1.343124,0.6306"
     style="fill:#231f20;fill-opacity:1;fill-rule:nonzero;stroke:none;stroke-width:0.0278021"
     id="path164" />
  <path
     d="m 53.269253,1182.893 c 0,0 -0.883275,-0.57 -0.960566,-1.427 -0.07284,-0.8502 -0.673647,-0.6164 -0.673647,-0.6164 0,0 -0.253277,1.3556 0.600806,2.0979 1.117368,0.9722 2.299795,1.2984 2.077376,0.8371 -0.223249,-0.4687 -1.043969,-0.8916 -1.043969,-0.8916"
     style="fill:#231f20;fill-opacity:1;fill-rule:nonzero;stroke:none;stroke-width:0.0278021"
     id="path166" />
  <path
     d="m 51.925017,1179.661 c -0.602195,-0.2349 -2.613403,-0.6297 -2.613403,-0.6297 0,0 0.291643,1.0164 1.11987,1.0164 0.815995,0 1.785456,0.1507 1.785456,0.1507 0,0 0.292479,-0.3077 -0.291923,-0.5374"
     style="fill:#231f20;fill-opacity:1;fill-rule:nonzero;stroke:none;stroke-width:0.0278021"
     id="path168" />
  <path
     d="m 52.866119,1177.319 c -0.257725,-0.2108 -0.443999,-0.4563 -0.656409,-0.6189 -1.126265,-0.8569 -1.820206,-1.051 -1.820206,-1.051 0,0 -0.275242,-0.073 -0.516564,0.1339 -0.100645,0.089 -0.207962,0.1573 -0.247441,0.2477 -0.107871,0.2445 0.345026,0.4678 0.457902,0.5136 0.260229,0.108 0.385061,0.069 1.010887,0.4138 0.31917,0.1734 0.681708,0.2888 1.011164,0.5575 1.267502,1.013 1.789349,1.3274 1.789349,1.3274 0,0 0.609145,-0.2077 -1.028682,-1.524"
     style="fill:#231f20;fill-opacity:1;fill-rule:nonzero;stroke:none;stroke-width:0.0278021"
     id="path170" />
  <path
     d="m 52.586153,1179.5845 c 0,0 0.151521,0.077 0.671143,-0.1575 0.534636,-0.2339 -1.636436,-1.3265 -2.236128,-1.7902 -0.589684,-0.468 -1.935031,-0.7093 -1.935031,-0.7093 0,0 -0.303044,-0.072 -0.303044,0.5524 0,0.6206 0.303044,1.007 0.303044,1.007 0,0 0.966127,-0.037 1.794631,0.3536 0.810433,0.3899 1.705385,0.744 1.705385,0.744"
     style="fill:#231f20;fill-opacity:1;fill-rule:nonzero;stroke:none;stroke-width:0.0278021"
     id="path172" />
  <path
     d="m 69.379219,1174.7655 c 0.209071,-0.6088 2.322037,-3.8061 2.169124,-4.4697 -0.154857,-0.6561 -0.997542,-0.3283 -1.224962,-0.4453 -0.236874,-0.1155 -0.167647,0.1092 -0.599138,0.1092 -0.440941,0 -0.640006,-0.7587 -0.94583,-0.4146 -0.289141,0.3367 -0.863812,-0.066 -1.096516,0 -0.224643,0.054 -0.467356,0.049 -0.24744,0.5153 0.03142,0.064 -1.090957,0.8735 -1.197995,1.3164 -0.101756,0.444 1.06649,1.3206 0.943605,1.6806 -0.623881,1.9098 -1.760711,4.2966 -1.95644,4.6558 -0.27802,0.4943 -1.000044,1.3269 -1.182981,1.6878 -0.107594,0.2299 -0.157639,0.587 -0.176265,0.8246 -0.01335,0.1371 1.233303,0.4218 1.718452,1.0287 0.156247,0.2035 0.261339,0.3047 0.343911,0.3478 0.157362,0.1982 0.301932,0.3998 0.385618,0.5681 0.39062,0.7973 0.726471,1.6019 1.372592,1.6077 0.42315,0.01 0.988367,-0.4178 1.124877,-0.9471 0.132059,-0.5359 0.17543,-1.1191 -0.540752,-1.5648 -0.716742,-0.4503 -1.25777,0.2091 -1.25777,0.2091 0,0 -0.206571,0.3341 0.04142,0.5449 0.25022,0.2136 0.11816,-0.2502 0.404521,-0.2577 0.286085,0 0.286085,0.043 0.405079,0.1342 0.120662,0.089 0.436773,0.4927 -0.108151,0.9706 -0.161252,0.1502 -0.514896,0.082 -0.757609,-0.224 -0.239933,-0.2961 -0.261619,-0.7524 -0.281357,-0.9406 -0.01224,-0.1292 -0.03058,-0.2447 -0.05644,-0.3445 0.298318,-0.1285 0.540751,-0.3514 0.819608,-0.4404 0.351419,-0.1242 0.915524,-0.2299 1.189932,-0.1161 0.819886,0.3469 1.016448,0.4473 1.370369,0.8438 0.346415,0.3942 0.443722,-1.0221 0.153747,-1.1822 -0.283862,-0.156 -0.774292,-0.092 -1.062879,-0.5724 -0.287752,-0.4738 -0.628328,-1.2063 -0.939991,-1.3705 -0.320281,-0.1676 -0.851023,-0.3361 -0.953891,-0.2944 -0.0809,0.031 -0.360873,0.146 -0.114824,0.5434 0.243547,0.3975 0.658635,0.6774 0.137344,0.5126 -0.532968,-0.1827 -0.882441,-0.3759 -0.719243,-0.8594 0.150965,-0.4796 0.563828,-0.7234 0.831562,-0.804 0.275242,-0.093 0.773458,0.1768 1.023398,0.477 0.247163,0.3145 1.110697,0.4713 1.042582,0.04 -0.06227,-0.4224 -0.340576,-1.6237 -0.504888,-1.5995 -0.166535,0.021 -0.364485,-0.095 -0.416475,-0.5775 -0.05755,-0.4953 0.665861,-0.5791 0.864091,-1.193"
     style="fill:#231f20;fill-opacity:1;fill-rule:nonzero;stroke:none;stroke-width:0.0278021"
     id="path174" />
  <path
     d="m 70.546076,1165.4402 c -0.910521,0.3411 -1.632265,0.8224 -2.269213,1.3217 -1.070662,0.4239 -3.072973,1.1871 -4.220926,1.0843 -1.019228,-0.091 -0.590796,0.293 -1.896942,0.1412 -1.311984,-0.1521 -2.24975,0.7771 -3.148039,0.6684 -0.635557,-0.074 -0.02697,0.01 -1.223018,0.01 -0.830729,0 -0.812657,0.4034 -0.730084,0.6528 0.04003,0.109 0.578284,0.1652 1.291967,0.2466 0.706175,0.076 1.559424,0.7398 2.232235,1.0849 0.673369,0.3441 0.935544,1.1874 1.12293,1.4545 0.186552,0.2675 1.232749,0.3058 1.983408,0.2288 0.745097,-0.076 0.973908,-0.5743 1.384268,-1.5704 0.413141,-0.9932 0.975022,-1.0304 1.647001,-1.607 0.04893,-0.04 0.10537,-0.091 0.165979,-0.1493 1.190211,-0.243 2.083772,-0.4796 2.31036,-0.4321 0.626383,0.1176 1.120427,0.6461 1.705386,0.6089 0.581343,-0.046 0.617763,0.055 0.722578,-0.1724 0.100088,-0.2207 -0.151244,-0.2035 -0.570223,-0.5054 -1.109584,-0.7838 0.570223,-1.5469 1.161018,-1.0635 0.608868,0.4977 -0.590795,0.7067 0.197953,0.8255 0.534079,0.077 0.88522,-0.6222 0.706731,-1.4519 -0.174598,-0.8254 -0.979193,-1.965 -2.573369,-1.3714"
     style="fill:#231f20;fill-opacity:1;fill-rule:nonzero;stroke:none;stroke-width:0.0278021"
     id="path176" />
  <path
     d="m 68.360546,1184.518 c -0.0506,-0.085 -0.182937,-0.1534 -0.473192,-0.1676 -0.761224,-0.034 -0.570777,-0.1582 -1.041747,-0.3576 -0.473749,-0.1957 -0.207682,0.097 -0.481533,-1.0253 -0.332515,-1.3828 -1.468511,-1.9403 -1.975345,-2.024 -0.505722,-0.088 -1.647556,-0.214 -2.009263,-0.1537 -0.352253,0.067 0.495157,0.5119 0.916917,0.5635 0.435102,0.049 1.068714,-0.1819 1.367587,0.2469 0.297761,0.4289 0.508502,0.6334 0.490153,0.907 -0.02224,0.2787 -0.03892,0.6932 -0.39201,0.7773 -0.350308,0.076 -0.210185,0.1948 -0.805708,0.2613 -0.401462,0.042 -0.57467,0.094 -0.897731,-0.1944 -0.335017,-0.2886 -0.487374,-0.6666 -0.247163,-0.9694 0.225198,-0.2953 0.756498,-0.6067 0.275521,-0.7392 -0.481534,-0.1428 -1.404565,-0.7863 -1.787123,-0.5958 -0.381445,0.1992 -1.097353,-0.1126 -1.505488,0.1492 -0.409248,0.2616 -0.630831,0.2839 -0.964179,0.4549 -0.339465,0.1692 -0.343635,0.3508 -0.343635,0.3508 0,0 -0.120105,0.2639 0.09842,0.2861 0.234649,0.02 0.524904,-0.2355 1.016168,-0.115 0.469858,0.115 1.607523,1.2335 1.712892,1.3953 0.10982,0.1627 0.327511,0.5282 0.370048,0.7765 0.0039,0.01 0.0039,0.012 0.0039,0.02 -0.388118,0 -0.78569,0 -1.181314,-0.01 -0.167647,-0.1721 -0.322226,-0.3419 -0.692831,-0.3238 -0.428709,0.016 -0.466519,-0.2347 -0.818495,-0.5541 -0.1518,-0.1394 -0.309715,-0.6486 -0.603863,-0.8761 -0.290811,-0.2404 -1.639495,0.2939 -1.810755,0.4157 -0.166536,0.1312 -0.669198,0.4156 -1.471569,1.0711 -0.110931,0.095 -0.222417,0.1717 -0.336127,0.2413 -0.823779,-0.01 -1.539685,-0.012 -2.065703,-0.021 -0.03447,-0.017 -0.07173,-0.032 -0.107037,-0.053 -0.742041,-0.3512 -0.942494,-0.8975 -1.108196,-1.2553 -0.164033,-0.3592 -0.151799,-1.2401 -0.164033,-1.7294 -0.01057,-0.4863 -0.185997,-0.5013 -0.495989,-0.5146 -0.303045,0 -0.180992,0.6926 -0.14068,1.2277 0.04059,0.5361 -0.233538,1.039 -0.05338,1.8964 0.137343,0.6612 0.34558,1.482 0.553262,1.4669 0.01,0 0.02641,0 0.03892,0 0.294148,0.3815 0.721744,0.687 1.21996,0.6405 -1.504933,0.1466 13.514633,0.1675 14.843856,0.04 0.83184,0.082 1.234971,-0.9 1.139333,-1.3645 -0.01307,-0.062 -0.03948,-0.1071 -0.07285,-0.1452"
     style="fill:#231f20;fill-opacity:1;fill-rule:nonzero;stroke:none;stroke-width:0.0278021"
     id="path178" />
  <path
     d="m 68.31245,1132.1112 c 2.107403,1.8395 2.985953,1.6615 3.419667,1.6554 0.435659,-0.01 1.81993,0.4203 1.799356,0.6547 -0.02141,0.2305 -0.513228,-0.1003 -0.641674,-0.099 -2.782998,0.1391 -4.311005,-0.9917 -4.984652,-1.3846 -0.682265,-0.3972 -1.087898,-2.1574 -1.773777,-2.6857 0.187665,-0.1921 0.264119,-0.2621 0.414807,-0.3961 0.410918,0.2146 1.525783,2.0424 1.766273,2.255 z m -12.443974,-12.4593 c -0.0069,-0.069 -0.01167,-0.1031 -0.01167,-0.1 -0.385061,-0.044 -0.398684,0.2599 -0.871599,0.7162 -0.04198,0.04 -0.09508,0.08 -0.138732,0.1217 -0.137343,0.124 -0.318892,0.238 -0.516009,0.3389 -0.618876,0.1986 -1.854961,-0.05 -3.156936,0.2708 -0.558546,-0.057 -1.149342,-0.025 -1.51911,0.2759 -0.17571,0.1379 -0.198507,0.2849 -0.123442,0.4481 -0.501552,0.2066 -1.252211,0.3331 -1.529675,0.033 0.02947,-0.09 0.0684,-0.1743 0.123997,-0.2577 0.933318,-1.4326 1.080393,-0.8546 0.732308,-2.6634 -0.09397,-0.4969 -0.14874,-0.9523 -0.150409,-1.3676 -0.105091,-0.1432 -0.326119,-0.3878 -0.903569,-0.2341 -0.592187,0.1626 -1.18048,0.1037 -2.650382,-0.1023 -0.514061,-0.071 -0.894673,-0.2199 -1.412628,-0.3689 -0.129557,-0.035 -0.402297,-0.05 -0.524904,-0.085 -0.141513,-0.048 -0.233816,-0.1137 -0.375608,-0.1591 -0.0645,-0.021 -0.185718,-0.029 -0.254111,-0.049 -0.541587,-0.1833 -0.972798,-0.4352 -1.4307,-0.6036 -0.355034,-0.133 -0.760667,-0.1874 -1.036465,-0.2722 -0.244937,-0.08 -0.86715,-0.2522 -1.003659,-0.3698 -0.234093,-0.229 -0.172095,-0.2716 -0.129835,-0.9241 0.293869,-4.3539 2.893371,-6.4538 3.06213,-6.783 0.673091,-1.2638 1.337841,-1.8515 1.707331,-2.4115 0.365321,-0.5563 0.333905,-1.1446 0.442055,-1.253 0.241045,0.025 0.591631,0.2541 0.781797,0.2753 0.383392,0.053 0.311106,0.1712 0.705063,0.072 0.04727,-0.01 0.538528,0.041 0.62249,0.1018 0.03698,-0.025 0.139846,-0.1554 0.163477,-0.2091 0.06311,-0.1034 0.122608,-0.4019 0.255224,-0.427 0.126778,-0.027 0.280524,0.037 0.287752,0.2502 0.0072,0.2166 -0.0072,0.4354 -0.04754,0.5522 -0.01668,0.052 -0.15041,0.3011 -0.224919,0.3603 -0.0078,0.01 -0.01362,0.01 -0.01668,0.014 -0.01585,0.011 -0.02752,0.019 -0.04504,0.032 -0.01613,0.014 -0.03419,0.034 -0.0506,0.05 -0.0028,0 -0.0028,0.01 -0.0028,0.01 -0.223808,0.2363 -0.384226,0.6053 -0.910521,0.6634 -1.203,0.1443 -2.02511,3.5167 -2.467999,4.6972 -0.233816,0.6369 -0.882997,1.6128 -0.859921,2.4268 0.03781,0.1427 0.320559,0.233 0.653351,0.2969 0.383948,0.082 0.856585,0.1268 1.51494,0.1341 0.278578,0 0.596357,-0.03 0.912746,-0.034 0.213242,0 0.412583,0.037 0.639728,0.034 0.257725,-0.01 0.53964,-0.057 0.808486,-0.066 0.464575,-0.01 0.94027,-0.021 1.420412,-0.033 0.440665,-0.01 0.865482,-0.1735 0.922755,-0.1876 0.698667,-0.169 1.144337,-0.1986 1.441542,-0.1524 0.02836,0.1746 0.02836,0.3951 -0.03142,0.689 -0.02363,0.017 -0.04643,0.04 -0.0709,0.056 -0.205456,0.1607 -0.699501,0.4357 -0.77985,1.4276 -0.07812,0.9879 -0.04838,0.6954 0.273852,1.1528 0.458179,0.6449 0.235761,0.1968 0.67448,0.061 0.439831,-0.1351 1.378154,0.7309 1.52495,0.2872 0.04449,-0.119 -0.02919,-0.2708 -0.158195,-0.4332 0.120939,0.085 0.241602,0.146 0.361707,0.1574 0.07034,0.01 0.199619,-0.018 0.231036,-0.073 0.01946,0.031 0.08563,0.045 0.232704,0.031 0.316388,-0.025 0.505164,-0.5936 0.447893,-1.2166 -0.06978,-0.6322 -0.01418,-0.2116 -0.01418,-0.5919 0,-0.3859 0,-0.9097 0.215466,-1.3079 0.212687,-0.403 0.965291,-0.3466 0.965291,-0.9366 0,-0.5838 0.03197,-1.794 0.182105,-1.7176 0.177099,0.079 0.32612,0.6236 0.32612,1.3345 0,0.6978 -0.06895,0.8038 0.170704,1.0326 0.233538,0.2355 0.609147,0.3984 0.609147,0.3984 0,0 0.444834,0.139 0.27246,-0.6139 -0.187665,-0.7543 -0.567442,-0.7893 -0.398404,-1.3272 0.164588,-0.5239 0.366432,-1.1711 1.115145,-0.4546 0.471801,0.4515 0.284693,0.2591 0.649457,0.9614 0.16459,0.3122 0.375609,0.6108 0.229368,1.119 -0.07924,0.2802 -0.282748,0.3514 -0.349194,0.9264 -0.07924,0.5855 -0.153467,0.6953 0.381168,0.8282 0.533522,0.1237 0.678929,0.1913 1.158237,-0.1927 0.474028,-0.3925 0.804039,-0.6602 0.983363,-0.5919 0.194894,0.083 0.494046,0.083 0.363652,0.3987 -0.150132,0.3061 -0.260783,0.104 -0.373661,0.3804 -0.06311,0.159 -0.298873,0.6286 0.03447,0.6286 0.339185,0 0.0948,0.3964 0.274962,0.5051 0.194616,0.09 0.229367,0.1218 -0.01808,0.5808 -0.256891,0.4515 -0.07618,0.2288 -0.378387,0.5366 -0.252166,0.2502 -1.001713,1.4204 -1.146283,1.9436 -0.364766,-0.028 -0.967516,0.8533 -1.50938,0.7007 -0.364764,-0.1151 -0.828227,0.017 -1.281959,0.2633 z m -9.894235,-16.1741 c 0.0203,0.031 0.09786,0.053 0.170149,0.063 -0.05922,0.021 -0.108428,0.035 -0.165422,0.053 -0.0987,-0.044 -0.190167,-0.085 -0.282193,-0.1235 0.09953,-0.01 0.268291,-0.01 0.277466,0.01 z m -0.482923,-0.1273 c 0.0081,0.011 0.02196,0.028 0.03697,0.041 -0.0556,-0.023 -0.110375,-0.044 -0.162643,-0.072 0.06227,0.01 0.120661,0.021 0.125666,0.031 z m 1.268334,0.025 c -0.08202,0.016 -0.173207,0.043 -0.26273,0.066 0.02169,-0.017 0.03948,-0.038 0.04171,-0.068 0.0016,-0.023 -0.0058,-0.043 -0.01112,-0.06 0.08035,0.017 0.158195,0.037 0.232149,0.062 z m 4.693007,11.8006 c -0.0709,-0.098 -0.135119,-0.1991 -0.179047,-0.2939 0.05449,0.094 0.118437,0.1938 0.179047,0.2939 z m 58.919461,6.5415 c -1.06537,-1.987 -5.2471,-5.6143 -7.58637,-7.1571 -0.89606,-0.5907 -1.98758,-0.9958 -3.042952,-1.5294 -0.70812,-0.3528 -1.34479,-0.8504 -2.09823,-1.1741 -1.26027,-0.5457 -2.28311,-0.7448 -3.20975,-1.0722 -0.91303,-0.3221 -1.861086,-0.8144 -2.761317,-1.0824 -1.260831,-0.3756 -2.441314,-0.5013 -3.606773,-0.7607 -0.497382,-0.11 -1.030908,-0.4081 -1.493537,-0.494 -1.017003,-0.1944 -1.897217,-0.1785 -2.719608,-0.2544 -0.645287,-0.059 -1.276957,-0.2338 -1.766828,-0.2163 -1.82521,0.058 -5.790913,-0.7048 -6.29163,1.9197 0.03447,0.558 0.380888,1.4991 0.351976,2.2589 -0.05588,1.3585 -2.233904,2.0366 -2.919228,2.0438 -2.046518,0.039 -3.759409,-0.158 -6.028345,1.9628 -2.153,2.0148 -2.314808,6.4359 -2.35957,6.4513 -0.07951,0.5257 -0.05505,0.8529 0.03892,1.0286 -0.05811,0.037 -0.09953,0.055 -0.135953,0.044 -0.301375,-0.096 -0.102034,-0.8209 -0.102034,-1.7203 0,-0.9047 -0.128168,-1.2011 -0.207404,-1.8027 -0.09675,-0.608 1.105693,-3.8695 2.144104,-4.5643 0.418978,-0.2822 0.738982,-0.5805 0.673645,-0.6697 -0.399238,-0.5281 -2.405721,-0.193 -3.217823,0.3905 -0.271905,0.1966 -0.520177,0.1524 -0.996708,0.6336 -0.07924,0.083 -0.337796,0.3801 -0.573558,0.6248 -0.138177,0.1434 -0.435938,0.4209 -0.5566,0.5522 -0.399238,0.4259 -0.886889,0.6739 -0.886889,0.6739 0,0 -1.493253,0.9956 -0.835176,0.739 0.795976,-0.3076 1.117647,-0.156 1.328943,0.1587 0.211853,0.3214 0.797088,1.8019 0.797088,2.6963 0,0.8985 -0.489875,1.7062 0,1.5043 0.464575,-0.1966 0.271349,-1.7093 0.271349,-1.7093 l -0.131505,-1.8902 c 0,0 0.07924,-0.4824 0.127613,-0.3609 0.05894,0.1226 0.145683,0.3234 0.233537,0.6489 0.320561,1.131 0.221585,4.3349 -0.188776,5.0898 -0.297761,0.5872 -0.325008,1.5889 -0.04504,2.1341 0.399518,0.7776 -0.02613,0.462 -0.26968,0.2879 -0.361707,-0.2571 -0.875214,-0.6511 -1.220516,-1.0072 -0.388952,-0.4034 -0.485704,-0.888 -0.346692,-1.1054 0.283025,-0.4554 0.408969,-0.2592 0.728139,-0.3094 0.163753,-0.021 -0.101479,-0.352 -0.636671,-0.7374 -0.05394,-0.044 -0.24299,-0.035 -0.382836,-0.1546 -0.06366,-0.062 -0.104536,-0.1147 -0.182661,-0.1667 -0.08229,-0.059 -0.32028,-0.066 -0.402574,-0.1674 -0.268848,-0.3237 -0.516843,-0.436 -0.589129,-0.5055 -0.133171,-0.1287 0.416478,-0.071 0.868262,-0.01 0.299709,0.047 0.676983,0.033 0.79403,-0.04 0.124275,-0.078 0.239933,-0.1716 0.144016,-0.1986 -0.55104,-0.1562 -1.826046,-0.2988 -2.305634,-0.4294 -0.625271,-0.1794 -0.766505,0 -1.335895,-0.4004 -0.573279,-0.3906 -0.28942,-1.795 -0.28942,-1.795 l 0.811823,0.017 0.486539,-0.3552 c 0.02085,0.048 0.067,0.057 0.162086,0 0.0253,-0.012 0.102312,-0.093 0.208794,-0.2111 0.05561,-0.023 0.118716,-0.067 0.145961,-0.1651 0.318613,-0.3701 0.758165,-0.8861 0.822945,-0.9264 0.09564,-0.062 0.125387,-0.243 0.22464,-0.3155 0.0848,-0.065 0.243271,-0.018 0.330848,-0.09 0.08785,-0.07 0.174319,-0.1485 0.257725,-0.2294 0.0823,-0.075 0.156248,-0.1518 0.23048,-0.2296 0.360316,-0.3848 0.69144,-0.858 0.927759,-1.4255 0.131503,-0.3166 -0.02891,-0.6989 0.647235,-0.9344 0.679763,-0.253 0.777348,-0.1507 0.944716,-0.2953 0.155693,-0.1476 0.395626,-0.402 0.470413,-0.7181 0.06784,-0.32 0.03948,-0.1874 -0.15041,-0.7548 -0.179046,-0.5538 -0.320003,-0.8488 -0.551316,-0.8488 -0.223807,0 -0.294982,-0.8119 -0.223807,-1.052 0.05449,-0.2491 0.251608,-0.4715 -0.03364,-0.5199 -0.28525,-0.049 -0.705896,0.4876 -0.58885,0 0.112878,-0.4835 0.418423,0 0.418423,-0.2967 0,-0.2844 0.817107,0.1635 1.023121,-0.5154 0.182938,-0.6473 -0.01195,-1.884 -0.353089,-2.2059 -0.349473,-0.3319 -0.700058,-0.7628 -0.495989,-0.9077 0.171261,-0.1515 0.6464,-0.4254 0.25022,-0.8396 -0.636672,-0.6665 -0.314444,-1.1803 -0.603587,-1.8024 -0.950277,-2.0443 -1.95338,-1.9606 -2.179689,-1.9868 -0.235763,-0.019 -0.360038,0.4029 0.03308,1.0818 0.401465,0.6717 0.06283,0.6244 0.02614,0.6113 -0.09703,-0.03 -0.494046,-0.1532 -0.739261,-0.2248 -0.227143,-0.072 -0.293034,0.2635 0.127612,0.9194 0.430657,0.6614 0.879939,0.9763 0.917194,1.2911 0.0481,0.3139 0.202678,0.4076 -0.109262,0.4076 -0.320281,0 -0.943051,-0.1924 -1.028959,-0.1607 -0.966959,0.355 0.256337,2.2052 -0.09647,2.183 -0.123442,-0.01 -0.711458,-1.2802 -0.979749,-1.5491 -0.248274,-0.2655 -0.251888,-0.5883 -0.18127,-1.0204 0.07257,-0.43 -0.194337,-0.8168 -0.287752,-0.9914 -0.08897,-0.1659 -0.620824,-0.5419 -0.04699,-1.1518 0.573282,-0.6067 1.068716,-0.63 0.807654,-0.6981 -0.25439,-0.081 -0.83629,-0.3534 -0.977524,-0.3959 -0.116214,-0.033 -0.272185,-0.068 -0.285251,0.1759 -0.01835,0.2391 0,0.6039 -0.235206,0.8622 -0.226311,0.2697 -0.158195,0.6128 -0.372272,0.5741 -0.187942,-0.018 -0.405077,0.079 -0.504609,0.1582 -0.142626,0.1182 -0.01279,0.037 -0.319447,0.4165 -0.193224,0.2427 -0.29081,0.2641 -0.219914,0.3597 0.0987,0.096 0.332512,-0.01 0.791248,-0.01 0.460683,0 0.576339,-0.1199 0.672813,0.2588 0.09675,0.3964 0.121217,0.65 -0.110653,0.7445 -0.23604,0.097 -0.897731,0 -1.208004,0.3878 -0.296927,0.379 -0.159584,0.6281 -0.454287,0.6573 -0.300264,0.028 -0.575505,-0.2119 -0.690327,0.028 -0.117049,0.2325 0.0028,0.5386 0,0.7846 -0.02752,0.2374 -0.382559,0.5158 -0.658357,0.5158 -0.288587,0 -0.464852,-0.2278 -0.606365,-0.4223 -0.140678,-0.1919 -0.08396,-0.3707 -0.197951,-0.3006 0,0 -0.166536,0.035 -0.09119,0.501 0.06867,0.4582 0.562715,0.7239 0.59997,1.1865 0.01057,0.4622 0.09397,0.7085 0.09175,1.0602 0,0.2288 0.265789,0.5521 -0.0367,0.836 -0.105369,0.1009 -1.040913,0.1401 -1.59362,0.4298 -0.475138,0.2452 0.611926,1.5583 0.47236,1.885 -0.125667,0.3097 -0.272185,0.5349 -0.298318,0.7681 -0.04588,0.4516 0.222418,0.5303 0.287752,0.8642 0.03614,0.1904 -0.08758,0.367 -0.108428,0.4687 -0.01585,-0.023 -0.03892,-0.047 -0.07979,-0.076 -0.273573,-0.1741 0.01251,-0.6612 -0.32306,-0.9189 -0.617486,-0.4729 -0.306936,-0.4674 -0.133173,-1.1674 0.226031,-0.9333 -0.221305,-1.481 -0.411195,-1.7824 -0.123718,-0.2071 -0.911076,-0.6697 -1.487692,-0.9561 -0.525461,-0.5877 -2.78828,-0.3959 -2.975111,-0.7518 -0.520178,-1.0195 1.042303,-2.8114 1.292801,-3.8903 0.04338,-0.1554 0.111486,-0.7165 0.130392,-0.7727 0.719521,0.2594 4.257902,1.5175 4.746664,1.6937 0.07951,0.071 0.186554,0.1118 0.235207,0.1035 0.281914,0 0.485703,-0.016 0.638337,-0.3718 0.107317,-0.2096 -0.509614,-0.2199 -0.649458,-0.263 -0.896065,-0.3847 -3.961253,-1.4404 -4.812834,-1.854 0.113156,-0.3626 0.01975,-0.679 -0.07785,-0.9339 -0.105927,-0.3014 -0.361428,-0.7263 -1.18604,-0.7485 -0.160419,-0.1891 -0.449283,-0.3019 -0.678373,-0.2405 -0.01613,0.01 -0.03364,0.01 -0.05088,0 -0.04143,-0.088 -0.212408,-0.077 -0.297761,-0.1398 -0.20379,-0.2035 -0.445668,-0.2456 -0.755384,-0.1696 -0.0053,-0.01 -0.0086,-0.015 -0.01363,-0.021 -0.302487,-0.2032 -0.464295,-0.2864 -0.833787,-0.3183 -0.03058,0.015 -0.117047,0.012 -0.182103,0.016 -0.02558,-7e-4 -0.03475,-0.022 -0.05755,-0.034 -0.279691,-0.148 -0.976135,-0.016 -1.351186,0.099 -1.032573,-0.4957 -2.081549,-0.9661 -2.424905,-1.1348 -3.229222,-1.4252 -14.704762,-6.1032 -17.253331,-7.0904 -1.35188,-0.5208 -3.811177,-1.6181 -5.622127,-2.7349 -0.725469,-0.4476 -1.369812,-1.3462 -1.962444,-3.2357 -0.103729,-0.3269 -0.02738,-1.2583 -0.845158,-0.2669 -0.859587,1.0479 -1.831356,3.0171 -2.122194,5.3848 -0.03842,0.2924 -0.197007,0.9731 0.373383,0.6717 0.797894,-0.4234 2.304549,-1.1822 3.713647,-0.8769 1.808224,0.3956 7.612817,2.493 12.007617,4.3163 2.948336,1.2261 12.102895,4.8634 13.056232,5.4008 0.113433,0.063 0.132894,0.095 0.115657,0.1121 -0.0595,0 -0.115657,0.01 -0.173486,0.012 -0.03697,0 -0.067,-0.01 -0.06144,0 -0.01668,0.1029 -2.045961,-0.6769 -6.870193,-0.9553 -0.246605,-0.012 -1.410126,-0.2193 -3.124408,-0.1262 -0.749352,0.039 -1.64511,0.2108 -2.593748,0.3125 -1.040968,0.1138 -2.161396,0.1649 -3.38914,0.3812 -0.699724,0.1249 -1.753927,0.1696 -2.497858,0.3364 -1.76566,0.3912 -2.600281,0.8969 -3.450082,1.3137 -0.809293,0.3939 -1.75554,0.37 -2.629251,0.7089 -3.767972,1.4513 -7.619768,3.5806 -10.9744769,6.6848 -1.524777,1.4112 -2.377634,2.0948 -0.220792,1.7118 0.635866,-0.1151 1.030965,0.039 1.341025,-0.3676 0.548441,-0.7143 3.4021669,-1.843 2.5165289,0.1546 -0.4156139,2.3129 0.998264,1.215 2.349922,0.4994 0.368601,-0.1955 3.929254,-2.0805 4.206163,-2.0391 0.136536,-0.017 0.216663,0.046 0.236985,0.1093 0.02933,0.079 0,0.2027 -0.06898,0.3586 -0.385754,0.8622 -2.031726,2.6401 -2.116634,2.6401 -0.113711,0.6036 0.490542,0.749 1.318963,0.3261 2.241216,-0.5135 4.064983,-2.1165 6.431753,-2.6882 1.535514,-0.3711 2.558328,-0.7629 2.90099,-0.5702 0.165617,0.092 0.125971,0.5177 0.131392,0.632 0.04779,1.2391 -0.891615,3.853 -0.179518,4.0586 0.7538,0.2181 2.743407,-3.0481 3.187575,-3.6208 0.182688,-0.2377 0.378498,-0.4412 0.525878,-0.5985 0.175931,-0.181 0.275825,-0.049 0.307881,0.087 0.136842,0.5408 0.187664,1.0557 0.216106,1.9473 0.01738,0.3942 -0.01084,1.1307 -0.305713,1.9244 -0.563633,1.5089 0.481116,0.828 1.462867,0.2502 0.41542,-0.241 1.520111,-0.9747 2.008067,-1.5029 0.694776,-0.7476 1.531344,-1.6373 1.531344,-1.6373 0.118437,-0.1615 0.175987,-0.1757 0.365042,-0.203 0.885499,0.2225 -0.295537,4.7225 1.182983,4.7225 1.298361,0 1.878036,-2.6729 2.402385,-2.4802 0.526017,0.1976 1.513549,3.4941 2.570588,3.6999 0,0.01 -0.195727,-0.6505 0.03058,-1.2511 0.217136,0.3275 -0.19795,-1.0348 0.135675,-0.7496 1.993693,1.6885 1.14684,2.1684 1.22274,3.3614 0.121495,2.1043 1.645054,1.5647 1.763769,1.7098 0.682544,0.8571 -0.242991,-1.1599 0.470691,-0.5472 0.188776,0.1594 1.768496,0.5694 1.680641,0.8357 -0.454566,1.4235 1.15657,3.5662 0.135674,4.6519 -0.408413,0.4306 -0.699224,0.9353 -0.899121,1.4415 -0.975856,1.2431 -2.251698,3.3183 -2.78133,6.1496 0.457624,2.8061 2.863346,5.9111 3.467765,6.3348 0.641952,0.4439 0.76456,0.2065 0.627217,-0.3824 -0.106761,-0.4414 0.196562,-0.8045 -0.285528,-1.3786 -0.17988,-0.2183 -0.25856,-1.009 -0.363096,-1.2734 -0.42454,-1.0759 -0.730641,-1.9931 -0.804039,-2.4138 -0.05199,-0.3433 -0.113989,-0.6146 -0.14763,-0.9033 -0.01752,-0.1273 -0.02447,-0.2563 -0.03225,-0.3856 -0.01808,-0.3509 8.23e-4,-0.7265 0.08702,-1.2069 0.05505,-0.3083 0.09981,-0.6555 0.191001,-0.9288 0.0506,-0.1663 0.150131,-0.2831 0.220749,-0.4201 0.114545,-0.2353 0.216578,-0.4752 0.342801,-0.7082 0.07034,-0.1175 0.08257,-0.2816 0.154023,-0.3942 0.111765,-0.1791 0.288865,-0.2132 0.35142,-0.31 0.117881,-0.1718 0.02391,-0.3514 -0.02085,-0.4865 0.326953,-0.4927 0.697556,-1.059 1.063155,-1.5869 0.343911,-0.4652 0.661133,-0.8906 0.802647,-1.0596 0.04226,-0.048 0.06366,-0.081 0.06923,-0.1106 0.263287,-0.3126 0.499604,-0.5388 0.69561,-0.6265 0.433713,-0.1982 0.77985,-0.3856 1.057871,-0.5643 0.106761,0.05 0.32195,0.02 0.682823,-0.1146 1.147951,-0.4318 2.310637,-1.4996 2.310637,-1.4996 l 0.08341,-0.3098 c 0.294981,-0.3058 0.566053,-0.6016 0.825724,-0.8293 0.176545,-0.1537 0.332238,-0.3111 0.474029,-0.4653 0.280245,-0.069 0.571889,-0.092 0.81627,0 l 0.974467,-2.1989 c 0,0 0.27691,1.5393 0.37505,1.9461 0.08702,0.3965 0.593577,1.4649 1.062045,1.4649 0.47486,0 -0.0962,-0.8051 -0.0962,-0.8051 0,0 0.379222,0.1979 0.957786,0.6956 0.580786,0.4987 1.451273,0.4996 1.739026,1.1936 0.291643,0.7069 0,0.8098 0,0.8098 0,0 -3.936788,-1.2942 -5.479809,-1.0001 -1.539683,0.3078 -4.011852,1.081 -4.875944,2.0833 -0.174042,0.204 -0.27691,0.4064 -0.331403,0.6052 -0.169315,0.2833 -0.404522,0.6469 -0.691717,1.0126 -0.101756,0.1259 -0.130391,0.3881 -0.237152,0.5424 -0.125666,0.1743 -0.062,0.3526 -0.196005,0.5633 -0.428989,0.6698 -0.382836,1.3478 -0.818774,2.399 -0.157638,0.384 -0.52129,1.0618 -0.614427,1.4574 -0.112599,0.4866 -0.09314,0.9414 -0.122052,1.428 -0.03058,0.3872 -0.123164,0.7973 -0.110653,1.1715 0.03142,0.8605 0.175154,1.6509 0.355034,2.332 0.220193,1.2759 0.591074,3.7606 0.501829,5.4721 -0.01306,0.2232 0.0823,0.5135 0.06728,0.7439 -0.0153,0.2222 -0.143182,0.3843 -0.158472,0.6098 -0.01279,0.2124 0.108428,0.6497 0.09119,0.8621 -0.08841,1.5577 -0.297205,2.6412 -0.297205,3.6143 0.03141,0.4604 -0.09592,0.8096 -0.02669,1.1679 -0.606087,2.7219 -2.021495,5.2613 -3.631241,6.9072 -1.20578,2.4811 -4.063287,3.1739 -7.692026,3.8025 -0.761502,0.3842 -2.643152,-0.8741 -2.541952,-1.0914 -1.391748,-0.7068 -2.510342,1.9046 -1.608634,1.9046 1.317823,0.6031 2.394045,5.9761 3.949299,5.0629 1.076778,-0.6328 0.886611,1.0295 1.973953,0.3947 0.486538,-0.1151 0.663082,0.025 1.060097,-0.7131 0.910243,-1.4927 2.338163,-2.2917 3.179734,-3.2256 0.606366,-0.6595 1.655063,-3.6171 1.955048,-3.4992 0,2.0232 -2.540283,5.4801 -3.721598,6.1479 -1.792961,1.8344 -0.838791,2.7575 -0.0531,4.4211 0.178769,0.3839 0.217692,0.7437 0.566331,1.0618 0.160418,0.1465 0.464574,0.3217 0.665028,0.4468 0.699781,0.5949 2.662335,0.5674 3.342099,0.1877 0.693385,-0.3857 1.44321,-0.1326 1.566652,-0.3709 0.241322,-0.4694 -1.073164,-2.2274 -1.414019,-2.6455 -0.342245,-0.4223 -0.658633,-0.355 -0.491264,-0.9224 0.279412,-0.9334 -0.513784,-0.7657 -0.03614,-1.7919 0.527406,-1.1482 0.919417,-2.902 1.335059,-3.9148 0.03141,0 2.729617,-7.2313 2.799956,-8.436 0.133727,-0.8569 1.052033,-3.0808 1.210505,-2.4769 -0.40591,3.2203 -1.413184,7.6851 -2.714045,12.1201 0.30777,1.9634 -0.896343,2.7905 -0.872988,4.2795 0.0139,0.9376 0.678651,0.7493 0.897453,0.7741 1.118202,0.1276 1.829659,0.8852 2.59839,0.6263 1.028125,-0.2927 2.829982,-1.5661 2.216388,-1.5246 -0.453731,0.029 0.58468,-1.9231 0.58468,-2.6729 0,-0.6887 -1.099298,-2.7591 -1.328944,-5.1476 -0.07868,-0.8263 1.608912,-2.0554 1.598627,-2.3948 -0.0086,-0.4024 -1.489641,0.1582 -1.732634,-0.3626 -0.386726,-0.851 -0.349473,-3.1915 -0.103424,-4.4083 0.06367,-1.2494 0.399797,-4.6307 0.343081,-5.1045 0.21352,-0.9539 2.208324,1.5472 2.891424,3.0593 0.02725,-0.012 0.09814,0.2175 0.127057,0.8363 0.0072,0.2002 -0.04366,0.4683 -0.02891,0.7459 0.0139,0.2987 0.0848,0.6596 0.09258,1.0527 0.0067,0.1512 0.01084,0.3102 0.01251,0.4745 0.0034,0.1485 -0.05588,0.3874 -0.05171,0.5491 0.0028,0.2756 0.06672,0.4896 0.07173,0.8021 0,0.429 0,0.897 0,1.3974 -0.005,0.2296 -0.06895,0.174 -0.667809,0.4934 -0.314996,0.1732 -0.553262,0.1591 -0.509056,0.4727 0.06366,0.4979 1.137108,0.7045 1.269724,2.108 0.05477,0.5783 -0.07201,2.8594 0.188778,4.1687 0.05672,0.2671 0.122885,0.668 0.144848,0.6994 0.169038,0.2271 0.21797,1.1274 -0.02113,1.5188 -0.06311,0.1 -0.342801,1.4602 -0.123719,1.4494 l 1.715393,-0.2508 c 0.113989,-0.01 0.244937,-0.03 0.402298,-0.07 0.09981,0.017 0.197117,0.021 0.301653,0.017 0.259673,-0.02 0.649182,-0.1171 1.043137,-0.4953 0.560769,-0.2315 1.056484,-0.1859 1.353688,-0.3143 0.402576,-0.176 2.486625,0.082 2.919228,-0.039 1.797967,-0.4985 4.709409,-0.5872 5.221247,-1.1115 0.330013,-0.088 0.688938,-0.2141 1.043693,-0.3551 -0.149852,0.026 -0.486537,-0.01 -0.879382,-1.1838 -0.474027,-1.4087 -1.196049,-2.6148 -2.067924,-3.4669 -0.869376,-0.8535 -4.285983,-4.8323 -4.285983,-4.8323 0,0 1.015334,0.6025 1.432089,0.7418 1.493811,0.5084 3.125798,0.6397 3.125798,0.6397 0,0 1.124598,1.8961 1.911678,2.9326 0.789025,1.0359 2.573091,2.6576 2.975665,3.3215 0.440665,0.7343 0.409248,0.8184 -0.274408,1.0684 -0.542419,0.2033 -1.023119,0.4073 -1.368978,0.5583 0.851024,-0.3509 1.636713,-0.6976 1.997586,-0.7051 0.250776,0.04 0.465408,-0.068 0.681709,-0.012 h 0.165144 c 1.934754,0.3625 2.774378,3.2884 3.186129,3.3143 v 0 c 0.897731,0.2844 1.10319,-0.2132 2.115742,-0.662 0.903852,-0.3992 -1.333112,-1.2959 -0.723688,-2.7783 0.222418,-0.5285 0.902454,-2.4357 1.667015,-3.1889 0.403408,-0.3942 0.650297,-0.2018 0.851862,-0.41 0.292477,-0.2967 -0.02641,-1.0793 -0.274962,-1.2839 -0.442612,-0.3637 -1.614472,-0.1163 -2.376254,1.4331 -0.04949,0.1015 -0.299706,0.2772 -0.419535,0.2733 -0.158472,-0.01 -0.206568,0.2055 -0.412582,0.07 -0.218248,-0.1371 0.916638,-0.9806 0.71785,-1.1997 -0.60692,-0.6578 -1.840224,-0.7962 -0.989478,-1.2052 0.258283,-0.3826 -0.232147,-0.9342 -0.266067,-1.3331 -0.277186,-1.7813 -1.939478,-2.4125 -3.856716,-2.6068 -0.211574,-0.017 -0.12511,-0.3333 -0.402574,-0.2885 -0.26162,0.044 -0.779851,0.224 -1.045363,0.2232 -0.321116,0 -0.557156,-0.1121 -0.916916,-0.058 -0.176822,0.034 -0.386172,0.077 -0.556598,0.088 -0.202123,0.01 -0.366989,-0.05 -0.560215,-0.042 -0.297204,0.016 -0.618319,0.095 -0.890224,0.1096 -0.752606,0.035 -1.376764,0.047 -1.763771,-0.033 -0.478476,-0.085 -0.461794,0.1713 -1.424026,0.2324 -3.373516,-0.6758 -5.313274,-1.9177 -7.918613,-4.7825 -1.772389,-1.1057 0.368376,0.097 0.340852,-0.3216 1.078169,0.2554 -1.300307,-0.713 -2.623689,-1.7238 -0.440666,-0.6995 -1.090123,-0.4025 -2.201377,-1.5575 -0.142346,-0.1465 -0.477362,-0.2602 -1.109027,-0.7862 -0.01111,-0.052 -0.02085,-0.1046 -0.03864,-0.1593 -0.242156,-0.6265 -0.782908,-1.0643 -0.708956,-1.9776 0.08035,-0.9266 -0.450949,-1.5208 -0.450949,-1.5208 0,0 0.720632,-0.5151 0,-1.4001 -0.302765,-0.3654 -0.512673,-0.8315 -0.65363,-1.2494 0.02558,-0.1496 0.04421,-0.3162 0.06478,-0.5035 0.05421,-0.458 -0.843518,-1.0065 -0.518234,-3.5353 0.04031,-0.2797 0.241045,-1.0866 0.302766,-1.396 0.04727,-0.2527 -0.182938,-0.7406 -0.115656,-1.0153 0.0734,-0.3164 0.448448,-0.4248 0.553263,-0.7729 0.115378,-0.4004 0.190444,-1.2027 0.622212,-1.962 0.321949,-0.5695 0.609424,-1.3103 0.854083,-1.9999 l 0.886889,-1.4863 c 0,0 1.293357,-1.0825 2.641484,-1.0825 1.35341,0 1.954771,-2.1583 6.607186,0.7789 0.928314,0.5811 0.64362,2.0507 1.15935,2.4358 0.466799,0.3529 0.436216,0.5085 0.507389,0.8724 0.11955,0.6089 -0.402297,1.2409 -0.788191,1.6095 -0.859922,0.8321 -3.878123,5.4946 -2.709321,4.6755 1.602516,-1.1268 1.436538,-2.5064 1.821041,-2.6053 0.382002,-0.095 1.687593,-2.0586 2.257537,-2.4642 0.361707,-0.2499 0.570501,0.6014 0.76456,1.5453 -0.02252,-0.5664 0.0036,-1.131 0.0036,-1.523 0,-1.3921 0.726748,-2.4104 1.100409,-3.0004 0.4554,-0.7496 0.61582,-1.0504 2.282282,-3.9616 1.659233,-2.917 2.368188,-3.1928 2.368188,-3.1928 0,0 0.575505,-0.2052 0.913301,-0.1935 0.328344,0.031 0.484869,0.1076 0.801537,0.2044 0.303599,0.096 0.384226,0.012 0.777348,0.1229 0.401742,0.1123 0.245215,0.3925 0.192113,0.7868 -0.05199,0.3987 -0.173763,0.4332 -0.205458,0.5818 -0.03058,0.1316 -0.194893,2.0007 -1.832164,3.6855 -1.165466,1.1997 -4.296269,3.8929 -4.57568,4.261 -0.278022,0.3592 -0.174598,0.4048 -0.159861,0.7059 0.01195,0.3003 0.427596,0.9258 0.675035,1.1048 0.236318,0.1683 0.42148,0.4668 0.356146,0.6315 -0.05477,0.1712 -0.216023,0.2512 -0.605808,-0.063 -0.581066,-0.4504 -0.981974,-0.4148 -0.966127,-0.011 0.02447,0.4143 -0.08146,0.8883 0.173208,1.2759 0.163477,0.2443 0.775403,0.6652 1.09763,0.512 0.176821,-0.085 0.334182,-0.1445 0.402853,-0.053 0.05727,0.074 0.06339,0.1197 -0.242713,0.3758 -0.359204,0.2961 -1.114033,0.2505 -1.92947,-0.315 -0.07535,-0.049 -0.134284,-0.1159 -0.191558,-0.1924 0.346694,1.0282 0.533802,1.9687 0.813492,2.5403 0.01752,0.035 0.03253,0.084 0.04977,0.1393 0.05866,0.086 0.102033,0.1538 0.132893,0.1932 1.625873,2.2615 2.568366,1.9737 2.568366,1.9737 0,0 1.114031,0.3475 1.537182,0.4863 0.06589,0.01 0.137898,0.04 0.219359,0.087 0.02863,0.014 0.05143,0.031 0.07229,0.043 0.167647,0.1087 0.573002,0.4231 0.933598,0.7557 0.269123,0.249 0.170704,0.3113 0.528518,0.4248 0.302766,0.1 0.110097,0.1601 0.41898,0.1601 0.499048,0 1.415129,-0.112 1.742639,0.018 0.108429,0.047 0.358926,-0.8369 1.213288,-1.4243 0.02863,-0.016 0.394513,-0.5124 0.406189,-0.5452 0.0058,-0.01 -1.621144,1.6925 -2.782163,0.8596 -1.730685,-1.2361 -1.864969,-2.1991 -2.789391,-3.1564 -0.06617,-0.066 -0.31917,-0.3867 -0.382836,-0.4473 -0.132617,-0.1502 -0.164034,-0.1154 -0.282748,-0.2514 -0.08341,-0.094 -0.180438,-0.2479 -0.260228,-0.3264 -0.418981,-0.3897 -0.719244,-1.1671 -0.851303,-1.402 -0.09759,-0.1796 -0.201287,-0.3612 -0.102314,-0.2671 0.159864,0.15 0.409527,0.3839 0.70979,0.6711 0.140957,0.1304 0.592466,0.3047 0.750659,0.4548 0.06505,0.062 0.129002,0.1243 0.197118,0.1849 0.07479,0.074 0.150132,0.1446 0.228255,0.2191 1.229135,1.1585 3.297616,1.0223 3.642641,1.0731 0.06061,0.01 -0.06033,-0.053 0.01028,-0.055 0.09258,0 0.749547,0.3768 0.83907,0.3701 0.05421,-0.01 0.143182,-0.084 0.194615,-0.094 0.173208,-0.02 0.364765,0.059 0.513506,0.01 0.07924,-0.031 0.150966,-0.063 0.22075,-0.1028 0.133728,-0.079 0.248272,0 0.329177,-0.1252 0.294702,-0.4715 0.395623,0.06 0.534358,-0.3269 0.08452,-0.2288 0.165422,0.039 0.203232,-0.083 0.03725,-0.1079 0.167093,-0.1758 0.173486,-0.1661 0.04003,0.035 -0.121774,1.242 -0.282192,2.2142 -0.162919,0.9889 -2.04735,2.7013 -1.973952,2.9351 0.329456,1.032 0.897174,1.6982 1.289464,2.2058 0.416476,0.5336 0.643619,0.8878 0.714792,1.007 0.26301,0.4632 0.787358,0.2805 1.232193,-0.1799 0.175988,-0.1882 0.268013,-0.467 0.395902,-0.72 0.04477,-0.09 0.190167,-0.272 0.294703,-0.4455 0.141512,-0.2256 0.336132,-0.4214 0.521291,-0.7225 0.07454,-0.1268 0.07923,-0.3177 0.155688,-0.4479 0.07619,-0.1321 0.284423,-0.2877 0.351979,-0.4123 0.167371,-0.3275 0.221861,-0.5436 0.251332,-0.7551 0.09675,-0.7507 -0.944158,-1.119 -0.938875,-1.193 0.05002,-0.345 -0.791254,-0.6775 -0.560773,-1.7443 0.392562,-1.7977 1.552196,-2.329 0.710068,-3.5631 -0.169872,-0.2572 -0.201013,-0.7454 -0.338354,-0.9008 -0.1632,-0.1815 -0.329176,-0.2375 -0.681152,-0.3976 -0.438718,-0.1982 -0.976412,0.6686 -1.569433,0.5846 -1.525783,-0.2171 -2.620909,-1.3055 -2.620909,-1.3055 0,0 -2.87558,-1.5689 -3.048509,-2.3788 -0.08118,-0.3147 -1.398449,-1.3136 -1.138221,-1.5377 0.176822,-0.1437 -0.149298,0.09 0.02808,-0.053 0.130671,-0.094 0.263287,-0.2193 0.383947,-0.2727 0.08925,-0.042 0.09258,-0.1674 0.157918,-0.099 0.433991,0.441 1.655062,2.5103 2.256424,2.8325 0.778182,0.4198 0.944161,0.446 1.588616,1.1885 0.670866,0.7724 0.705062,0.011 0.7362,-0.5226 0.02836,-0.4621 0.498494,-1.334 0.455956,-1.8878 -0.0809,-1.2 0.02447,-1.8944 0.401742,-3.2926 0.396736,-1.3974 0.607477,-2.3257 0.04059,-3.9265 -0.108429,-0.2947 -0.04059,-0.6781 -0.04059,-0.9839 0,-0.6984 -0.700614,-2.0596 -1.143503,-2.3051 -0.343914,-0.2007 -0.966126,-0.617 -2.247528,-0.1513 -0.253556,0.091 -0.3795,0.1546 -0.519345,0.1758 -0.0734,0.013 -0.241323,0.1693 -0.278855,0.1624 -0.104536,-0.027 -0.07701,-0.1232 0.06895,-0.2678 0.0898,-0.091 0.229368,-0.2027 0.412028,-0.3323 0.317222,-0.2196 0.923588,-0.5182 1.296692,-0.4645 0.44428,0.065 0.584679,-0.2461 0.165979,-0.347 -0.406467,-0.098 -0.939712,-0.1704 -1.399005,-0.03 -0.236874,0.072 -0.421479,0.1538 -0.668363,0.3551 -0.07896,0.063 -0.154581,0.089 -0.227145,0.1577 -0.03475,0.034 -0.119826,0.181 -0.157639,0.2141 -0.0392,0.04 -0.360316,0.2921 -0.399237,0.333 -0.324174,0.3256 -0.335851,0.4173 -0.473749,0.6033 -0.293036,0.3962 -1.252489,1.0551 -1.545802,1.8641 -0.276631,0.7918 -0.507666,1.2322 -0.507666,0.7318 0,-0.4595 -0.05199,-0.3351 0.163754,-1.2253 0.893283,-1.5074 2.416009,-3.2923 3.198083,-3.7338 1.560258,-0.64 1.855239,0.1315 2.45243,0.4004 1.225242,0.9202 2.345669,1.8522 2.345669,4.0772 0,0.7308 1.292521,-0.093 1.455164,-0.3243 0.439275,-0.6269 1.216622,-1.3645 1.297531,-1.2174 0.137892,0.09 0.471803,0.5249 0.745654,0.9545 0.222133,0.35 1.246927,1.7671 1.518548,2.0876 0.727866,0.8449 1.052595,0.791 0.852973,-0.285 -0.240209,-1.243 0.612484,-3.5055 0.733419,-4.0345 0.155976,-0.027 2.137433,1.6742 2.501638,2.0328 1.269454,1.2475 1.809372,1.5667 2.177468,1.3006 0.373938,-0.2689 0.188499,-0.8655 0.137069,-1.3153 -0.137069,-1.1655 -0.428436,-2.9137 -0.198232,-3.1044 0.251884,-0.2185 1.603349,0.863 2.223616,1.7185 0.398406,0.5495 2.336777,2.6081 3.16417,2.4632 0.326671,-0.061 -0.254672,-0.5913 -0.448733,-1.5335 -0.198224,-0.9678 -0.437882,-3.008 0.210746,-2.9516 1.105687,0.1046 1.532449,0.7179 2.754629,1.5992 0.58274,0.4174 1.74515,1.5678 3.54033,2.3699 1.60558,0.7104 1.86497,0.452 1.5725,-0.1054 -0.15792,-0.2985 -1.04147,-1.7532 -1.20885,-2.3111 -0.16208,-0.535 0.0464,-0.8892 0.40286,-0.5981 1.53802,1.2458 4.423322,2.5439 4.796432,2.6379 1.45016,0.3661 2.16774,0.68 2.41323,0.3105 0.34558,-0.5062 -0.17127,-1.3431 -0.22019,-1.9133 -0.022,-0.2769 0.0214,-0.4674 0.17181,-0.3484 0.25328,0.2007 0.5263,0.4535 0.79959,0.7121 1.01784,0.9644 2.01093,1.5975 3.73105,2.0409 0.52185,0.1351 0.52602,-0.083 0.37255,-0.3695"
     style="fill:#231f20;fill-opacity:1;fill-rule:nonzero;stroke:none;stroke-width:0.0278021"
     id="path180" />
</svg>
